<?xml version="1.0" standalone="no"?>
<!DOCTYPE svg PUBLIC "-//W3C//DTD SVG 20010904//EN"
 "http://www.w3.org/TR/2001/REC-SVG-20010904/DTD/svg10.dtd">
<svg version="1.0" xmlns="http://www.w3.org/2000/svg"
 width="225.000000pt" height="225.000000pt" viewBox="0 0 225.000000 225.000000"
 preserveAspectRatio="xMidYMid meet">

<g transform="translate(0.000000,225.000000) scale(0.100000,-0.100000)"
fill="#000000" stroke="none">
<path d="M1621 2195 c-35 -38 -41 -51 -41 -89 0 -33 7 -52 26 -76 15 -17 25
-32 23 -34 -2 -1 -116 -94 -254 -206 -137 -111 -255 -207 -262 -212 -8 -7 -21
-3 -38 10 -74 58 -234 69 -330 22 -54 -26 -155 -118 -155 -140 0 -8 80 -94
177 -192 l178 -178 -306 -308 -307 -307 -157 -234 c-87 -129 -152 -231 -144
-226 8 4 111 73 229 153 l215 144 312 311 313 312 178 -178 c98 -97 185 -177
194 -177 25 0 117 106 145 166 46 100 30 256 -33 326 -15 16 0 37 201 283
l218 266 22 -21 c30 -29 80 -41 113 -29 30 11 88 63 104 93 9 16 -28 56 -263
292 -188 189 -280 274 -295 274 -13 0 -38 -18 -63 -45z m536 -520 c-2 -5 -16
-17 -30 -25 l-27 -15 -221 220 c-121 121 -224 227 -229 236 -7 12 -3 25 12 44
l21 27 238 -238 c132 -132 238 -243 236 -249z m-338 141 c102 -102 132 -138
124 -148 -78 -100 -416 -508 -421 -508 -15 0 -366 360 -358 367 17 18 511 422
516 422 3 1 66 -59 139 -133z m-815 -267 c28 -13 126 -104 293 -272 235 -235
252 -256 267 -306 9 -30 16 -66 16 -81 0 -55 -31 -132 -70 -174 l-39 -41 -398
397 -397 397 24 27 c74 79 202 101 304 53z m-261 -862 c-201 -201 -334 -326
-381 -359 -41 -27 -75 -48 -78 -46 -2 2 17 35 42 74 31 45 152 176 357 381
l311 313 28 -27 29 -27 -308 -309z"/>
</g>
</svg>
