<?xml version="1.0" standalone="no"?>
<!DOCTYPE svg PUBLIC "-//W3C//DTD SVG 20010904//EN"
 "http://www.w3.org/TR/2001/REC-SVG-20010904/DTD/svg10.dtd">
<svg version="1.0" xmlns="http://www.w3.org/2000/svg"
 width="225.000000pt" height="225.000000pt" viewBox="0 0 225.000000 225.000000"
 preserveAspectRatio="xMidYMid meet">

<g transform="translate(0.000000,225.000000) scale(0.100000,-0.100000)"
fill="#000000" stroke="none">
<path d="M1519 2203 c-74 -67 -80 -115 -21 -176 l26 -27 -24 -24 c-14 -13
-109 -98 -212 -188 l-187 -165 -148 0 c-166 0 -254 -18 -360 -71 -66 -34 -161
-105 -170 -129 -4 -10 50 -71 172 -193 l178 -178 -19 -25 c-10 -14 -182 -222
-381 -462 -337 -404 -363 -438 -363 -474 0 -49 32 -81 83 -81 38 0 62 19 777
614 80 67 153 127 163 135 17 13 33 0 197 -164 122 -122 183 -176 193 -172 27
10 99 109 134 184 52 113 66 188 66 350 l0 142 164 188 c91 103 175 199 189
213 l24 24 27 -26 c61 -59 109 -53 176 21 29 32 37 49 37 78 0 36 -14 52 -303
340 -288 289 -304 303 -340 303 -29 0 -46 -8 -78 -37z m-609 -1298 c74 -74 83
-87 70 -99 -57 -56 -886 -736 -894 -733 -23 8 -10 30 95 157 441 533 631 760
637 760 4 0 45 -38 92 -85z"/>
</g>
</svg>
